<svg xmlns="http://www.w3.org/2000/svg" xmlns:xlink="http://www.w3.org/1999/xlink" width="500" zoomAndPan="magnify" viewBox="0 0 375 374.999991" height="500" preserveAspectRatio="xMidYMid meet" version="1.0"><defs><clipPath id="647f8f4b45"><path d="M 180 334 L 195 334 L 195 347.953125 L 180 347.953125 Z M 180 334 " clip-rule="nonzero"/></clipPath></defs><path fill="#004aad" d="M 372.710938 183.097656 C 371.558594 181.757812 361.359375 170.117188 344.394531 155.386719 C 344.21875 154.519531 344.066406 153.640625 343.871094 152.777344 L 341.855469 153.226562 C 337.859375 149.816406 333.550781 146.28125 328.890625 142.679688 L 340.203125 139.097656 C 338.792969 134.65625 337.1875 130.246094 335.40625 125.984375 L 323.082031 131.105469 C 324.429688 134.335938 325.589844 137.675781 326.710938 141.023438 C 292.953125 115.324219 243.429688 87.394531 187.5 87.394531 C 131.578125 87.394531 82.058594 115.316406 48.296875 141.019531 C 49.382812 137.75 50.519531 134.46875 51.847656 131.257812 L 39.515625 126.164062 C 37.726562 130.472656 36.125 134.882812 34.730469 139.285156 L 45.925781 142.8125 C 41.328125 146.375 37.078125 149.863281 33.128906 153.234375 L 31.121094 152.792969 C 30.933594 153.652344 30.78125 154.527344 30.605469 155.386719 C 13.640625 170.117188 3.441406 181.757812 2.289062 183.097656 C 0.125 185.597656 0.125 189.3125 2.289062 191.816406 C 3.441406 193.15625 13.640625 204.796875 30.605469 219.527344 C 30.78125 220.394531 30.933594 221.265625 31.121094 222.121094 L 33.128906 221.679688 C 37.132812 225.089844 41.445312 228.625 46.109375 232.234375 L 34.796875 235.816406 C 36.207031 240.257812 37.8125 244.667969 39.59375 248.929688 L 51.917969 243.808594 C 50.570312 240.578125 49.410156 237.234375 48.289062 233.886719 C 82.046875 259.582031 131.570312 287.511719 187.5 287.511719 C 243.421875 287.511719 292.941406 259.589844 326.703125 233.886719 C 325.617188 237.15625 324.480469 240.4375 323.152344 243.648438 L 335.484375 248.742188 C 337.273438 244.433594 338.875 240.023438 340.269531 235.621094 L 329.074219 232.09375 C 333.664062 228.539062 337.914062 225.050781 341.863281 221.6875 L 343.878906 222.132812 C 344.074219 221.265625 344.21875 220.394531 344.398438 219.527344 C 361.367188 204.796875 371.5625 193.15625 372.71875 191.816406 C 374.875 189.308594 374.875 185.597656 372.710938 183.097656 Z M 267.570312 187.453125 C 267.570312 235.269531 231.652344 274.171875 187.5 274.171875 C 143.347656 274.171875 107.429688 235.269531 107.429688 187.453125 C 107.429688 139.636719 143.347656 100.734375 187.5 100.734375 C 231.652344 100.734375 267.570312 139.636719 267.570312 187.453125 Z M 16.40625 187.453125 C 29.164062 174.046875 71.117188 133.179688 125.605469 112.707031 C 106.320312 131.046875 94.082031 157.714844 94.082031 187.453125 C 94.082031 217.191406 106.320312 243.859375 125.613281 262.199219 C 71.117188 241.726562 29.171875 200.859375 16.40625 187.453125 Z M 249.386719 262.199219 C 268.679688 243.859375 280.917969 217.191406 280.917969 187.453125 C 280.917969 157.714844 268.679688 131.046875 249.386719 112.707031 C 303.882812 133.179688 345.828125 174.046875 358.59375 187.453125 C 345.828125 200.859375 303.882812 241.726562 249.386719 262.199219 Z M 249.386719 262.199219 " fill-opacity="1" fill-rule="nonzero"/><path fill="#004aad" d="M 143.28125 47.484375 L 139.265625 34.753906 C 134.867188 36.144531 130.457031 37.75 126.144531 39.539062 L 131.257812 51.867188 C 135.207031 50.222656 139.257812 48.75 143.28125 47.484375 Z M 143.28125 47.484375 " fill-opacity="1" fill-rule="nonzero"/><path fill="#004aad" d="M 193.8125 40.832031 L 194.371094 27.503906 C 189.730469 27.3125 185.03125 27.316406 180.421875 27.519531 L 180.996094 40.84375 C 185.246094 40.660156 189.570312 40.660156 193.8125 40.832031 Z M 193.8125 40.832031 " fill-opacity="1" fill-rule="nonzero"/><path fill="#004aad" d="M 168.257812 41.945312 L 166.507812 28.726562 C 161.898438 29.332031 157.265625 30.144531 152.753906 31.140625 L 155.636719 44.167969 C 159.78125 43.246094 164.019531 42.507812 168.257812 41.945312 Z M 168.257812 41.945312 " fill-opacity="1" fill-rule="nonzero"/><path fill="#004aad" d="M 119.679688 57.261719 L 113.488281 45.449219 C 109.351562 47.609375 105.285156 49.964844 101.410156 52.4375 L 108.589844 63.6875 C 112.152344 61.40625 115.882812 59.25 119.679688 57.261719 Z M 119.679688 57.261719 " fill-opacity="1" fill-rule="nonzero"/><path fill="#004aad" d="M 98.113281 71.023438 L 89.980469 60.445312 C 86.285156 63.285156 82.6875 66.308594 79.277344 69.4375 L 88.3125 79.261719 C 91.433594 76.398438 94.730469 73.625 98.113281 71.023438 Z M 98.113281 71.023438 " fill-opacity="1" fill-rule="nonzero"/><path fill="#004aad" d="M 79.269531 88.3125 L 69.429688 79.296875 C 66.292969 82.71875 63.269531 86.3125 60.441406 89.996094 L 71.023438 98.125 C 73.625 94.75 76.394531 91.441406 79.269531 88.3125 Z M 79.269531 88.3125 " fill-opacity="1" fill-rule="nonzero"/><path fill="#004aad" d="M 63.671875 108.597656 L 52.421875 101.421875 C 49.9375 105.3125 47.574219 109.375 45.421875 113.507812 L 57.25 119.6875 C 59.234375 115.882812 61.402344 112.160156 63.671875 108.597656 Z M 63.671875 108.597656 " fill-opacity="1" fill-rule="nonzero"/><path fill="#004aad" d="M 295.574219 69.316406 C 292.152344 66.179688 288.550781 63.160156 284.875 60.335938 L 276.753906 70.929688 C 280.128906 73.519531 283.433594 76.285156 286.574219 79.148438 Z M 295.574219 69.316406 " fill-opacity="1" fill-rule="nonzero"/><path fill="#004aad" d="M 222.042969 31.101562 C 217.527344 30.113281 212.902344 29.296875 208.285156 28.703125 L 206.5625 41.925781 C 210.792969 42.480469 215.039062 43.21875 219.175781 44.128906 Z M 222.042969 31.101562 " fill-opacity="1" fill-rule="nonzero"/><path fill="#004aad" d="M 314.445312 89.855469 C 311.609375 86.171875 308.585938 82.582031 305.453125 79.167969 L 295.621094 88.199219 C 298.5 91.328125 301.273438 94.625 303.871094 98 Z M 314.445312 89.855469 " fill-opacity="1" fill-rule="nonzero"/><path fill="#004aad" d="M 317.667969 119.53125 L 329.484375 113.328125 C 327.316406 109.207031 324.957031 105.136719 322.472656 101.261719 L 311.238281 108.453125 C 313.519531 112.015625 315.679688 115.742188 317.667969 119.53125 Z M 317.667969 119.53125 " fill-opacity="1" fill-rule="nonzero"/><path fill="#004aad" d="M 273.4375 52.347656 C 269.507812 49.84375 265.441406 47.488281 261.339844 45.355469 L 255.171875 57.183594 C 258.929688 59.144531 262.660156 61.292969 266.257812 63.585938 Z M 273.4375 52.347656 " fill-opacity="1" fill-rule="nonzero"/><path fill="#004aad" d="M 248.679688 39.457031 C 244.410156 37.683594 239.988281 36.082031 235.535156 34.683594 L 231.53125 47.410156 C 235.609375 48.683594 239.652344 50.15625 243.554688 51.777344 Z M 248.679688 39.457031 " fill-opacity="1" fill-rule="nonzero"/><path fill="#004aad" d="M 101.5625 322.558594 C 105.492188 325.0625 109.558594 327.417969 113.660156 329.550781 L 119.828125 317.722656 C 116.070312 315.761719 112.339844 313.613281 108.742188 311.320312 Z M 101.5625 322.558594 " fill-opacity="1" fill-rule="nonzero"/><path fill="#004aad" d="M 206.742188 332.960938 L 208.492188 346.179688 C 213.101562 345.574219 217.734375 344.761719 222.246094 343.765625 L 219.363281 330.738281 C 215.21875 331.660156 210.980469 332.398438 206.742188 332.960938 Z M 206.742188 332.960938 " fill-opacity="1" fill-rule="nonzero"/><path fill="#004aad" d="M 231.71875 327.421875 L 235.734375 340.152344 C 240.132812 338.761719 244.542969 337.15625 248.855469 335.367188 L 243.742188 323.039062 C 239.792969 324.683594 235.742188 326.15625 231.71875 327.421875 Z M 231.71875 327.421875 " fill-opacity="1" fill-rule="nonzero"/><path fill="#004aad" d="M 255.320312 317.644531 L 261.511719 329.457031 C 265.648438 327.296875 269.714844 324.941406 273.589844 322.46875 L 266.410156 311.21875 C 262.847656 313.5 259.117188 315.65625 255.320312 317.644531 Z M 255.320312 317.644531 " fill-opacity="1" fill-rule="nonzero"/><path fill="#004aad" d="M 295.730469 286.59375 L 305.570312 295.609375 C 308.707031 292.1875 311.730469 288.59375 314.558594 284.910156 L 303.976562 276.78125 C 301.375 280.15625 298.605469 283.464844 295.730469 286.59375 Z M 295.730469 286.59375 " fill-opacity="1" fill-rule="nonzero"/><path fill="#004aad" d="M 311.328125 266.308594 L 322.578125 273.484375 C 325.0625 269.59375 327.425781 265.53125 329.578125 261.398438 L 317.75 255.21875 C 315.765625 259.023438 313.597656 262.746094 311.328125 266.308594 Z M 311.328125 266.308594 " fill-opacity="1" fill-rule="nonzero"/><path fill="#004aad" d="M 276.886719 303.882812 L 285.019531 314.460938 C 288.714844 311.621094 292.3125 308.597656 295.722656 305.46875 L 286.6875 295.644531 C 283.566406 298.507812 280.269531 301.28125 276.886719 303.882812 Z M 276.886719 303.882812 " fill-opacity="1" fill-rule="nonzero"/><path fill="#004aad" d="M 57.332031 255.375 L 45.515625 261.578125 C 47.683594 265.699219 50.042969 269.769531 52.527344 273.644531 L 63.761719 266.453125 C 61.480469 262.890625 59.320312 259.164062 57.332031 255.375 Z M 57.332031 255.375 " fill-opacity="1" fill-rule="nonzero"/><path fill="#004aad" d="M 60.554688 285.058594 C 63.390625 288.742188 66.414062 292.328125 69.546875 295.746094 L 79.378906 286.710938 C 76.5 283.582031 73.726562 280.289062 71.128906 276.914062 Z M 60.554688 285.058594 " fill-opacity="1" fill-rule="nonzero"/><path fill="#004aad" d="M 79.425781 305.589844 C 82.847656 308.726562 86.449219 311.746094 90.125 314.570312 L 98.246094 303.976562 C 94.871094 301.386719 91.566406 298.621094 88.425781 295.757812 Z M 79.425781 305.589844 " fill-opacity="1" fill-rule="nonzero"/><path fill="#004aad" d="M 152.957031 343.804688 C 157.472656 344.792969 162.097656 345.609375 166.714844 346.203125 L 168.4375 332.980469 C 164.207031 332.425781 159.960938 331.6875 155.824219 330.777344 Z M 152.957031 343.804688 " fill-opacity="1" fill-rule="nonzero"/><path fill="#004aad" d="M 126.320312 335.449219 C 130.589844 337.222656 135.011719 338.824219 139.464844 340.222656 L 143.46875 327.496094 C 139.390625 326.222656 135.347656 324.75 131.445312 323.128906 Z M 126.320312 335.449219 " fill-opacity="1" fill-rule="nonzero"/><g clip-path="url(#647f8f4b45)"><path fill="#004aad" d="M 181.1875 334.074219 L 180.628906 347.402344 C 182.910156 347.503906 185.199219 347.546875 187.5 347.546875 C 189.875 347.546875 192.238281 347.496094 194.578125 347.394531 L 194.003906 334.066406 C 189.753906 334.242188 185.429688 334.253906 181.1875 334.074219 Z M 181.1875 334.074219 " fill-opacity="1" fill-rule="nonzero"/></g><path fill="#004aad" d="M 132.164062 218.851562 L 160.808594 190.214844 L 182.78125 212.179688 C 185.390625 214.789062 189.609375 214.789062 192.21875 212.179688 L 234.207031 170.203125 L 234.207031 187.453125 L 247.554688 187.453125 L 247.554688 154.101562 C 247.554688 150.410156 244.570312 147.429688 240.878906 147.429688 L 207.519531 147.429688 L 207.519531 160.769531 L 224.773438 160.769531 L 187.5 198.03125 L 165.527344 176.066406 C 162.917969 173.457031 158.699219 173.457031 156.09375 176.066406 L 122.730469 209.417969 Z M 132.164062 218.851562 " fill-opacity="1" fill-rule="nonzero"/><path fill="#004aad" d="M 180.828125 227.476562 L 194.171875 227.476562 L 194.171875 240.816406 L 180.828125 240.816406 Z M 180.828125 227.476562 " fill-opacity="1" fill-rule="nonzero"/><path fill="#004aad" d="M 207.519531 227.476562 L 220.863281 227.476562 L 220.863281 240.816406 L 207.519531 240.816406 Z M 207.519531 227.476562 " fill-opacity="1" fill-rule="nonzero"/><path fill="#004aad" d="M 154.136719 227.476562 L 167.480469 227.476562 L 167.480469 240.816406 L 154.136719 240.816406 Z M 154.136719 227.476562 " fill-opacity="1" fill-rule="nonzero"/></svg>